solid face
facet normal 0.000000e+00 0.000000e+00 1.000000e+00
outer loop
vertex 0.000000e+00 0.000000e+00 0.000000e+00
vertex 5.000000e+02 0.000000e+00 0.000000e+00
vertex 0.000000e+00 6.000000e+02 0.000000e+00
endloop
endfacet
facet normal 0.000000e+00 -1.000000e+00 0.000000e+00
outer loop
vertex 0.000000e+00 0.000000e+00 0.000000e+00
vertex 5.000000e+02 0.000000e+00 0.000000e+00
vertex 0.000000e+00 0.000000e+00 7.000000e+02
endloop
endfacet
facet normal 1.000000e+00 0.000000e+00 0.000000e+00
outer loop
vertex 0.000000e+00 0.000000e+00 0.000000e+00
vertex 0.000000e+00 6.000000e+02 0.000000e+00
vertex 0.000000e+00 0.000000e+00 7.000000e+02
endloop
endfacet
facet normal 6.734887e-01 5.612406e-01 4.810634e-01
outer loop
vertex 5.000000e+02 0.000000e+00 0.000000e+00
vertex 0.000000e+00 6.000000e+02 0.000000e+00
vertex 0.000000e+00 0.000000e+00 7.000000e+02
endloop
endfacet
endsolid